<svg width="26" height="32" viewBox="0 0 26 32" fill="none" xmlns="http://www.w3.org/2000/svg">
<g id="Group 74">
<path id="Vector 1931" d="M1.23484 22.7501C-1.44773 28.0839 0.998965 29.1259 1.51672 29.9839L23.4986 27.541C23.4986 24.9671 22.9808 25.324 21.9453 22.7501C20.9098 20.1762 21.5989 19.6695 21.9453 15.8695C22.2724 12.2809 22.3912 7.03848 20.392 4.21794C18.8388 2.02647 16.6841 -0.60101 11.5579 0.126625C5.82677 0.940128 4.37259 7.82166 4.34154 9.88056C4.23071 17.2279 3.30605 18.632 1.23484 22.7501Z" fill="#9E5969"/>
<path id="Vector 1952" d="M21.5742 12.765C21.16 11.1177 19.5485 11.347 19.3412 11.4245L18.8389 15.8034C19.8744 15.6318 21.9884 14.4123 21.5742 12.765Z" fill="#FFA39C"/>
<path id="Vector 1953 (Stroke)" fill-rule="evenodd" clip-rule="evenodd" d="M19.9603 13.3021C19.84 13.3895 19.7377 13.4964 19.6847 13.5626C19.5799 13.6937 19.3887 13.7149 19.2576 13.6101C19.1266 13.5052 19.1053 13.314 19.2102 13.183C19.2922 13.0804 19.433 12.934 19.603 12.8105C19.7658 12.6922 19.9991 12.5625 20.2577 12.5625C20.4255 12.5625 20.5616 12.6985 20.5616 12.8664C20.5616 13.0342 20.4255 13.1702 20.2577 13.1702C20.1922 13.1702 20.0879 13.2093 19.9603 13.3021Z" fill="#FF6C73"/>
<g id="Vector">
<path d="M16.5099 23.0963C15.6186 22.5291 15.5308 20.9017 15.5983 20.1589C15.3552 20.1589 13.944 20.5978 13.37 20.8679V31.6044H25.2206C25.1193 31.0979 24.7546 29.6394 24.1064 27.8567C23.2961 25.6284 21.3716 25.122 20.0549 24.7169C18.7382 24.3117 17.6241 23.8053 16.5099 23.0963Z" fill="#FFA39C"/>
<path d="M10.3323 23.0963C11.2237 22.5291 11.3115 20.9017 11.244 20.1589C11.487 20.1589 12.8984 20.5978 13.4724 20.8679V31.6044H1.62109C1.72239 31.098 2.08704 29.6394 2.73532 27.8568C3.54567 25.6284 5.47025 25.122 6.78707 24.7169C8.10388 24.3117 9.21808 23.8053 10.3323 23.0963Z" fill="#FFA39C"/>
</g>
<g id="Vector_2">
<path d="M25.2205 31.6043C25.1192 31.0978 25.058 29.5381 24.4097 27.7555C24.1071 26.9233 23.3969 25.9323 23.0757 25.7297C19.548 28.1606 16.7115 28.1606 13.3695 28.4645V31.6043H25.2205Z" fill="#F7CEBA"/>
<path d="M1.62012 31.6043C1.72141 31.0978 1.78265 29.5381 2.43093 27.7555C2.73355 26.9233 3.44387 25.9323 3.76508 25.7297C7.29302 28.1606 10.1296 28.1606 13.4719 28.4645V31.6043H1.62012Z" fill="#F7CEBA"/>
</g>
<g id="Vector_3">
<path d="M15.5984 20.0579L15.5985 21.4759C15.5985 21.4759 14.9907 21.8052 14.5856 21.9823C14.1804 22.1595 13.5253 22.2739 13.4239 22.2739V20.8504L15.5984 20.0579Z" fill="#FF6C73"/>
<path d="M11.2441 20.0579V21.4759C11.2441 21.4759 11.8519 21.8052 12.2571 21.9823C12.6623 22.1595 13.3385 22.2739 13.4239 22.2739V20.8504L11.2441 20.0579Z" fill="#FF6C73"/>
</g>
<g id="Vector_4">
<path fill-rule="evenodd" clip-rule="evenodd" d="M17.2852 28.0917C17.4353 28.0166 17.6178 28.0774 17.6928 28.2275C17.882 28.6058 18.2313 29.6313 18.2313 30.8956C18.2313 31.0634 18.0953 31.1995 17.9275 31.1995C17.7597 31.1995 17.6236 31.0634 17.6236 30.8956C17.6236 29.729 17.2978 28.7963 17.1493 28.4993C17.0742 28.3492 17.1351 28.1667 17.2852 28.0917Z" fill="#F7F0E8"/>
<path fill-rule="evenodd" clip-rule="evenodd" d="M20.3238 27.0788C20.4739 27.0037 20.6564 27.0646 20.7314 27.2147C20.9206 27.593 21.27 28.6184 21.27 29.8827C21.27 30.0506 21.1339 30.1866 20.9661 30.1866C20.7983 30.1866 20.6622 30.0506 20.6622 29.8827C20.6622 28.7162 20.3364 27.7834 20.1879 27.4865C20.1128 27.3364 20.1737 27.1538 20.3238 27.0788Z" fill="#F7F0E8"/>
<path fill-rule="evenodd" clip-rule="evenodd" d="M23.0732 25.4872C23.2073 25.5881 23.2342 25.7786 23.1333 25.9127C23.0672 26.0005 22.961 26.0871 22.8558 26.164C22.7427 26.2466 22.6012 26.3387 22.4406 26.436C22.1187 26.631 21.7061 26.855 21.2592 27.0776C20.3699 27.5207 19.3176 27.9716 18.5516 28.1751C17.3423 28.4964 14.6312 28.7715 13.3933 28.8689C13.226 28.882 13.0798 28.7571 13.0666 28.5898C13.0534 28.4225 13.1784 28.2762 13.3457 28.263C14.5944 28.1648 17.249 27.8923 18.3955 27.5877C19.1019 27.4001 20.1108 26.9708 20.9882 26.5337C21.4247 26.3162 21.8219 26.1002 22.1258 25.9162C22.278 25.824 22.4034 25.7419 22.4973 25.6733C22.5442 25.639 22.5808 25.6099 22.6079 25.5861C22.6213 25.5743 22.6312 25.5648 22.6383 25.5575C22.6451 25.5505 22.6478 25.5471 22.6478 25.5471C22.7487 25.4131 22.9392 25.3862 23.0732 25.4872Z" fill="#F7F0E8"/>
<path fill-rule="evenodd" clip-rule="evenodd" d="M9.55613 28.0917C9.40603 28.0166 9.22351 28.0774 9.14845 28.2275C8.9593 28.6058 8.6099 29.6313 8.6099 30.8956C8.6099 31.0634 8.74595 31.1995 8.91376 31.1995C9.08158 31.1995 9.21762 31.0634 9.21762 30.8956C9.21762 29.729 9.54352 28.7963 9.69201 28.4993C9.76706 28.3492 9.70623 28.1667 9.55613 28.0917Z" fill="#F7F0E8"/>
<path fill-rule="evenodd" clip-rule="evenodd" d="M6.51732 27.0788C6.36722 27.0037 6.1847 27.0646 6.10965 27.2147C5.92049 27.593 5.57109 28.6184 5.57109 29.8827C5.57109 30.0506 5.70714 30.1866 5.87496 30.1866C6.04277 30.1866 6.17882 30.0506 6.17882 29.8827C6.17882 28.7162 6.50471 27.7834 6.6532 27.4865C6.72826 27.3364 6.66742 27.1538 6.51732 27.0788Z" fill="#F7F0E8"/>
<path fill-rule="evenodd" clip-rule="evenodd" d="M3.76761 25.4872C3.63354 25.5881 3.60667 25.7786 3.7076 25.9127C3.77371 26.0005 3.87984 26.0871 3.98507 26.164C4.09819 26.2466 4.23965 26.3387 4.40033 26.436C4.72224 26.631 5.13485 26.855 5.58177 27.0777C6.47118 27.5207 7.52355 27.9716 8.28958 28.1751C9.49888 28.4964 12.2102 28.7715 13.4481 28.8689C13.6154 28.8821 13.7617 28.7571 13.7749 28.5898C13.788 28.4225 13.6631 28.2762 13.4958 28.263C12.247 28.1648 9.59218 27.8923 8.44562 27.5877C7.73924 27.4001 6.73023 26.9708 5.85274 26.5337C5.41622 26.3162 5.01901 26.1002 4.71513 25.9162C4.56293 25.824 4.43752 25.7419 4.34358 25.6733C4.29663 25.639 4.26002 25.6098 4.23298 25.5861C4.21958 25.5743 4.20962 25.5648 4.20254 25.5575C4.19575 25.5505 4.19308 25.5471 4.19308 25.5471C4.09215 25.413 3.90168 25.3862 3.76761 25.4872Z" fill="#F7F0E8"/>
</g>
<g id="Vector_5">
<path d="M20.0545 9.86126C20.0545 5.9828 17.2788 2.83887 13.4228 2.83887V21.0678C13.9008 21.0678 15.6567 20.3214 16.6108 19.6254C18.7057 18.0974 20.0545 14.8719 20.0545 9.86126Z" fill="#FFB3A9"/>
<path d="M6.78711 9.86128C6.78711 5.98281 9.56655 2.83887 13.4228 2.83887V21.0678C12.9447 21.0678 11.1853 20.3214 10.2311 19.6255C8.13608 18.0974 6.78711 14.8719 6.78711 9.86128Z" fill="#FFB3A9"/>
</g>
<path id="Vector 1949" d="M16.7772 9.11865C15.9878 9.11865 15.4616 9.43285 15.2971 9.58995C14.8038 10.2969 16.0721 9.81659 16.4075 9.72637C16.9148 9.58995 17.7785 9.53151 18.504 9.58995C18.9402 9.62509 19.2441 9.66022 19.2441 9.62509C19.2441 9.38944 17.764 9.11865 16.7772 9.11865Z" fill="#894255"/>
<ellipse id="Ellipse 377" cx="16.8138" cy="12.1575" rx="0.607722" ry="0.810296" fill="#9E5969"/>
<path id="Vector 1950" d="M16.6113 10.9419C15.9631 10.9419 15.4859 11.3242 15.3959 11.6166C15.2946 11.9456 15.6997 11.9631 15.9019 11.8535C16.8369 11.3462 17.0164 11.6166 17.8267 11.9091C18.475 12.143 18.637 11.4217 18.637 11.0318C18.547 11.1292 18.4615 11.347 18.0293 11.347C17.4891 11.347 17.4216 10.9419 16.6113 10.9419Z" fill="#894255"/>
<path id="Vector 1934" d="M10.0645 9.11865C10.8539 9.11865 11.3802 9.43285 11.5447 9.58995C12.0381 10.2969 10.7696 9.81659 10.4342 9.72638C9.92693 9.58995 9.06317 9.53151 8.33757 9.58995C7.90135 9.62509 7.59747 9.66022 7.59747 9.62509C7.59747 9.38944 9.07767 9.11865 10.0645 9.11865Z" fill="#894255"/>
<ellipse id="Ellipse 376" cx="0.607762" cy="0.810298" rx="0.607762" ry="0.810298" transform="matrix(-1 0 0 1 10.6357 11.3472)" fill="#9E5969"/>
<path id="Vector 1935" d="M10.2314 10.9419C10.8797 10.9419 11.3569 11.3242 11.4469 11.6166C11.5482 11.9456 11.143 11.9631 10.9409 11.8535C10.0058 11.3462 9.82622 11.6166 9.01588 11.9091C8.3676 12.143 8.20553 11.4217 8.20553 11.0318C8.29557 11.1292 8.3811 11.347 8.81329 11.347C9.35352 11.347 9.42105 10.9419 10.2314 10.9419Z" fill="#894255"/>
<g id="Vector_6">
<path d="M13.4704 14.277L13.5705 14.277L13.5725 14.8848C13.6569 14.8848 13.7731 14.8848 14.0769 14.7835C14.3172 14.7034 14.4813 14.46 14.4813 14.1818C14.4813 13.9037 14.2481 13.9232 13.9749 14.1818C13.8746 14.2768 13.6726 14.2769 13.4704 14.277Z" fill="#FF6C73"/>
<path d="M13.5705 14.277L13.5717 14.277L13.5725 14.8848C13.4881 14.8848 13.2679 14.8848 12.964 14.7835C12.7237 14.7034 12.5596 14.46 12.5596 14.1818C12.5596 13.9037 12.7928 13.9232 13.066 14.1818C13.1664 14.2768 13.3684 14.2769 13.5705 14.277Z" fill="#FF6C73"/>
</g>
<g id="Vector_7">
<path d="M13.7493 16.1795L13.4262 16.2942V17.1204C13.8114 17.1205 14.1797 17.0191 14.7876 16.8167C14.984 16.7513 15.1215 16.7638 15.2103 16.6855C15.3237 16.5856 15.2207 16.4551 15.0717 16.4806C14.9683 16.4984 14.8405 16.5128 14.6855 16.5128C14.3757 16.5128 14.1153 16.3469 13.9721 16.2273C13.9101 16.1755 13.8257 16.1533 13.7493 16.1795Z" fill="#FF6C73"/>
<path d="M14.1797 18.0321C14.585 17.2218 13.7747 17.5255 13.4262 17.5152V18.3593C13.4262 18.3593 14.0164 18.3586 14.1797 18.0321Z" fill="#FF6C73"/>
<path d="M13.0923 16.1795L13.4262 16.2942V17.1204C12.9644 17.1204 12.6619 17.0191 12.0548 16.8167C11.8584 16.7512 11.7201 16.7638 11.6312 16.6855C11.5179 16.5856 11.6209 16.4551 11.7698 16.4807C11.8733 16.4984 12.0011 16.5128 12.156 16.5128C12.4659 16.5128 12.7264 16.3469 12.8695 16.2273C12.9316 16.1755 13.0159 16.1533 13.0923 16.1795Z" fill="#FF6C73"/>
<path d="M12.6619 18.0321C12.2566 17.2218 13.167 17.5152 13.4262 17.5152V18.3593C13.4262 18.3593 12.8253 18.3586 12.6619 18.0321Z" fill="#FF6C73"/>
</g>
<path id="Vector 1933" d="M17.9055 7.57518C18.1261 9.09035 19.5955 10.7157 20.0551 11.347C20.0551 11.347 20.5737 9.62304 20.6628 8.38663C20.8707 5.50069 18.8513 3.70353 16.2512 2.43417C13.4387 1.06111 11.0405 0.307141 8.25514 2.9753C5.46975 5.64346 6.04934 13.2568 6.04934 13.2568L0.810547 29.1735C1.91345 30.5264 4.88442 33.1975 6.58391 31.4018C8.86849 28.988 7.15224 27.8568 7.15224 26.7851C7.15224 24.0795 7.97942 23.8089 8.25514 21.9149C8.53087 20.021 7.15224 17.5859 7.15224 15.9625C7.15224 14.3391 7.70369 14.0685 8.25514 11.904C8.80659 9.73946 7.70369 5.41065 11.2881 4.05782C14.8726 2.70499 15.9755 4.86952 16.5269 5.41065C17.0784 5.95178 17.6298 5.68122 17.9055 7.57518Z" fill="#9E5969"/>
</g>
</svg>
